<svg xmlns="http://www.w3.org/2000/svg" width="69.809" height="43.629" viewBox="0 0 69.809 43.629">
  <defs>
    <style>
      .cls-1 {
        fill: #fff;
      }
    </style>
  </defs>
  <g id="helicopter_1_" data-name="helicopter (1)" transform="translate(-0.001 -96.008)">
    <g id="Group_36" data-name="Group 36" transform="translate(0.003 107.642)">
      <g id="Group_35" data-name="Group 35">
        <path id="Path_11" data-name="Path 11" class="cls-1" d="M5.832,181.341a5.817,5.817,0,1,0,5.817,5.817A5.823,5.823,0,0,0,5.832,181.341Zm0,8.726a2.909,2.909,0,1,1,2.909-2.909A2.912,2.912,0,0,1,5.832,190.067Z" transform="translate(-0.015 -181.341)"/>
      </g>
    </g>
    <g id="Group_38" data-name="Group 38" transform="translate(8.728 104.734)">
      <g id="Group_37" data-name="Group 37" transform="translate(0 0)">
        <path id="Path_12" data-name="Path 12" class="cls-1" d="M102.734,165.842l-2.516-5.032a1.457,1.457,0,0,0-1.3-.8H94.555a1.453,1.453,0,0,0-1.027.425l-5.393,5.393H65.469a1.454,1.454,0,0,0-.02,2.909,1.454,1.454,0,0,0-.218,2.888c5.329.887,14.4,3.072,16.483,5.215l.093.183c2.749,5.381,6.172,12.074,12.748,12.074h20.36c5.8,0,10.18-3.127,10.18-7.271C125.1,177.418,115.255,166.36,102.734,165.842Zm12.181,20.343H94.555c-4.8,0-7.647-5.573-10.157-10.488l-.183-.355a1.645,1.645,0,0,0-.189-.282c-3.162-3.688-16.777-6.05-18.318-6.306a1.075,1.075,0,0,0-.215-.02H88.738a1.453,1.453,0,0,0,1.027-.425l5.393-5.393h2.862l2.507,5.014a1.457,1.457,0,0,0,1.3.8c11.931,0,20.36,10.913,20.36,13.089C122.187,184.227,118.926,186.185,114.915,186.185Z" transform="translate(-64.014 -160.007)"/>
      </g>
    </g>
    <g id="Group_40" data-name="Group 40" transform="translate(45.085 110.548)">
      <g id="Group_39" data-name="Group 39" transform="translate(0 0)">
        <path id="Path_13" data-name="Path 13" class="cls-1" d="M352.488,217.195H340.819a4.341,4.341,0,0,1-4.183-3.109l-3.118-10.4a1.453,1.453,0,1,0-2.784.838l3.118,10.4a7.23,7.23,0,0,0,6.966,5.183h11.669a1.456,1.456,0,0,0,0-2.912Z" transform="translate(-330.672 -202.652)"/>
      </g>
    </g>
    <g id="Group_42" data-name="Group 42" transform="translate(0.001 102.005)">
      <g id="Group_41" data-name="Group 41" transform="translate(0 0)">
        <path id="Path_14" data-name="Path 14" class="cls-1" d="M8.621,146.617,5.712,140.8a1.458,1.458,0,0,0-1.879-.683L.878,141.39a1.453,1.453,0,0,0-.8,1.795l1.454,4.363a1.455,1.455,0,0,0,2.76-.922l-1.033-3.095.465-.2,2.3,4.593a1.454,1.454,0,0,0,1.3.8,1.484,1.484,0,0,0,.649-.154A1.459,1.459,0,0,0,8.621,146.617Z" transform="translate(-0.001 -139.997)"/>
      </g>
    </g>
    <g id="Group_44" data-name="Group 44" transform="translate(2.911 116.368)">
      <g id="Group_43" data-name="Group 43" transform="translate(0 0)">
        <path id="Path_15" data-name="Path 15" class="cls-1" d="M26.362,245.492a1.463,1.463,0,0,0-1.952.652l-.183.364a1.454,1.454,0,0,0-2.88.288V249.7a1.455,1.455,0,0,0,1.454,1.454h1.454a1.462,1.462,0,0,0,1.3-.806l1.454-2.909A1.457,1.457,0,0,0,26.362,245.492Z" transform="translate(-21.348 -245.341)"/>
      </g>
    </g>
    <g id="Group_46" data-name="Group 46" transform="translate(40.723 96.008)">
      <g id="Group_45" data-name="Group 45" transform="translate(0 0)">
        <path id="Path_16" data-name="Path 16" class="cls-1" d="M300.136,96.008a1.455,1.455,0,0,0-1.454,1.454v1.454a1.454,1.454,0,0,0,2.909,0V97.462A1.455,1.455,0,0,0,300.136,96.008Z" transform="translate(-298.682 -96.008)"/>
      </g>
    </g>
    <g id="Group_48" data-name="Group 48" transform="translate(40.723 98.917)">
      <g id="Group_47" data-name="Group 47" transform="translate(0 0)">
        <path id="Path_17" data-name="Path 17" class="cls-1" d="M326.314,117.341H300.136a1.454,1.454,0,0,0,0,2.909h26.177a1.454,1.454,0,0,0,0-2.909Z" transform="translate(-298.682 -117.341)"/>
      </g>
    </g>
    <g id="Group_50" data-name="Group 50" transform="translate(14.546 98.917)">
      <g id="Group_49" data-name="Group 49" transform="translate(0 0)">
        <path id="Path_18" data-name="Path 18" class="cls-1" d="M134.314,117.341H108.136a1.454,1.454,0,0,0,0,2.909h26.177a1.454,1.454,0,0,0,0-2.909Z" transform="translate(-106.682 -117.341)"/>
      </g>
    </g>
    <g id="Group_52" data-name="Group 52" transform="translate(46.54 130.911)">
      <g id="Group_51" data-name="Group 51" transform="translate(0 0)">
        <path id="Path_19" data-name="Path 19" class="cls-1" d="M342.8,352.008a1.455,1.455,0,0,0-1.454,1.454v5.817a1.454,1.454,0,0,0,2.909,0v-5.817A1.455,1.455,0,0,0,342.8,352.008Z" transform="translate(-341.348 -352.008)"/>
      </g>
    </g>
    <g id="Group_54" data-name="Group 54" transform="translate(58.175 130.911)">
      <g id="Group_53" data-name="Group 53" transform="translate(0 0)">
        <path id="Path_20" data-name="Path 20" class="cls-1" d="M428.136,352.008a1.455,1.455,0,0,0-1.454,1.454v5.817a1.454,1.454,0,0,0,2.909,0v-5.817A1.455,1.455,0,0,0,428.136,352.008Z" transform="translate(-426.682 -352.008)"/>
      </g>
    </g>
    <g id="Group_56" data-name="Group 56" transform="translate(31.997 133.82)">
      <g id="Group_55" data-name="Group 55" transform="translate(0 0)">
        <path id="Path_21" data-name="Path 21" class="cls-1" d="M271.749,373.529a1.456,1.456,0,0,0-1.981.558c-.689,1.23-3.5,2-4.546,2.164H236.136a1.454,1.454,0,1,0,0,2.909l29.287-.015c.538-.076,5.305-.817,6.885-3.639A1.452,1.452,0,0,0,271.749,373.529Z" transform="translate(-234.682 -373.343)"/>
      </g>
    </g>
  </g>
</svg>
