<svg xmlns="http://www.w3.org/2000/svg" height="575pt" version="1.1" viewBox="1 -96 575.973 575" width="575pt">
<g id="surface1">
<path d="M 306.617188 53.289062 C 311.339844 56.429688 316.882812 58.097656 322.554688 58.089844 L 547.191406 58.089844 C 563.09375 58.089844 575.988281 45.195312 575.988281 29.289062 C 575.988281 13.386719 563.09375 0.492188 547.191406 0.492188 L 322.554688 0.492188 C 316.871094 0.472656 311.308594 2.140625 306.578125 5.292969 L 287.996094 17.769531 L 269.371094 5.292969 C 264.648438 2.152344 259.105469 0.480469 253.433594 0.492188 L 28.800781 0.492188 C 12.894531 0.492188 0 13.386719 0 29.289062 C 0 45.195312 12.894531 58.089844 28.800781 58.089844 L 253.433594 58.089844 C 259.117188 58.109375 264.679688 56.4375 269.410156 53.289062 L 278.394531 47.222656 L 278.394531 106.089844 L 241.273438 106.089844 C 231.160156 106.121094 221.796875 111.421875 216.570312 120.074219 L 196.164062 154.085938 L 73.851562 154.085938 L 47.394531 83.519531 C 45.988281 79.769531 42.402344 77.285156 38.398438 77.289062 L 9.597656 77.289062 C 4.296875 77.289062 0 81.585938 0 86.886719 L 0 259.683594 C 0 264.984375 4.296875 269.285156 9.597656 269.285156 L 28.800781 269.285156 C 32.4375 269.285156 35.765625 267.230469 37.390625 263.976562 L 62.984375 212.769531 L 199.753906 239.648438 L 266.875 314.238281 C 279.621094 328.378906 297.757812 336.460938 316.792969 336.484375 L 316.792969 365.28125 L 299.859375 365.28125 C 290.347656 365.304688 281.652344 359.914062 277.433594 351.390625 L 260.25 359.972656 C 267.722656 375.007812 283.070312 384.507812 299.859375 384.480469 L 516.125 384.480469 C 532.949219 384.542969 548.34375 375.039062 555.828125 359.972656 L 538.644531 351.390625 C 534.414062 359.949219 525.671875 365.339844 516.125 365.28125 L 499.191406 365.28125 L 499.191406 336.484375 L 534.046875 336.484375 C 557.210938 336.488281 575.992188 317.714844 576 294.550781 C 576.007812 275.296875 562.898438 258.511719 544.214844 253.847656 L 540.921875 253.023438 C 536.089844 251.800781 531.785156 249.042969 528.664062 245.160156 L 481.757812 186.515625 C 465.398438 165.96875 440.546875 154.023438 414.28125 154.085938 L 379.828125 154.085938 L 359.417969 120.0625 C 354.183594 111.417969 344.824219 106.121094 334.71875 106.085938 L 297.59375 106.085938 L 297.59375 47.230469 Z M 317.292969 21.332031 C 318.847656 20.28125 320.675781 19.710938 322.550781 19.691406 L 547.1875 19.691406 C 552.492188 19.691406 556.789062 23.988281 556.789062 29.289062 C 556.789062 34.59375 552.488281 38.890625 547.1875 38.890625 L 322.554688 38.890625 C 320.660156 38.890625 318.808594 38.332031 317.234375 37.277344 L 305.273438 29.289062 Z M 258.734375 37.324219 C 257.160156 38.355469 255.316406 38.898438 253.433594 38.890625 L 28.800781 38.890625 C 23.496094 38.890625 19.199219 34.59375 19.199219 29.292969 C 19.199219 23.988281 23.5 19.691406 28.800781 19.691406 L 253.433594 19.691406 C 255.328125 19.691406 257.179688 20.25 258.753906 21.304688 L 270.714844 29.292969 Z M 19.199219 96.488281 L 31.746094 96.488281 L 53.347656 154.085938 L 19.199219 154.085938 Z M 22.867188 250.085938 L 19.199219 250.085938 L 19.199219 204.160156 L 43.4375 208.960938 Z M 479.992188 365.285156 L 335.992188 365.285156 L 335.992188 336.484375 L 479.992188 336.484375 Z M 477.292969 211.6875 L 507.773438 249.777344 L 452.996094 248.960938 L 429.996094 211.6875 Z M 374.390625 173.289062 L 414.277344 173.289062 C 431.875 173.242188 448.777344 180.140625 461.320312 192.488281 L 412.792969 192.488281 C 407.488281 192.488281 403.191406 196.785156 403.191406 202.089844 C 403.191406 203.867188 403.6875 205.613281 404.621094 207.128906 L 439.421875 263.527344 C 441.140625 266.316406 444.167969 268.035156 447.445312 268.085938 L 529.898438 269.382812 L 539.566406 272.261719 C 549.609375 275.054688 556.617188 284.121094 556.789062 294.542969 C 556.773438 307.097656 546.601562 317.269531 534.046875 317.285156 L 316.792969 317.285156 C 303.1875 317.273438 290.222656 311.5 281.109375 301.398438 L 211.878906 224.464844 C 210.488281 222.921875 208.636719 221.871094 206.597656 221.46875 L 19.199219 184.597656 L 19.199219 173.289062 Z M 334.714844 125.289062 C 338.089844 125.300781 341.214844 127.070312 342.960938 129.953125 L 357.4375 154.085938 L 218.550781 154.085938 L 233.027344 129.953125 C 234.777344 127.070312 237.898438 125.300781 241.273438 125.289062 Z M 334.714844 125.289062 " style=" stroke:none;fill-rule:nonzero;fill:rgb(0%,0%,0%);fill-opacity:1;" />
<path d="M 337.605469 265.015625 C 339.386719 267.683594 342.382812 269.285156 345.59375 269.285156 L 403.191406 269.285156 C 408.496094 269.289062 412.792969 264.988281 412.792969 259.6875 C 412.792969 257.789062 412.234375 255.9375 411.179688 254.359375 L 372.78125 196.761719 C 371 194.089844 368.003906 192.488281 364.792969 192.488281 L 307.195312 192.488281 C 301.894531 192.488281 297.59375 196.785156 297.59375 202.085938 C 297.59375 203.984375 298.15625 205.835938 299.207031 207.414062 Z M 359.65625 211.6875 L 385.257812 250.085938 L 350.699219 250.085938 L 325.097656 211.6875 Z M 359.65625 211.6875 " style=" stroke:none;fill-rule:nonzero;fill:rgb(0%,0%,0%);fill-opacity:1;" />
</g>
</svg>